# xmcd
#
# Track frame offsets:
# 150
# 8357
# 22655
# 44795
# 57830
# 80555
# 90717
# 102460
# 110900
# 122532
# 143275
# 156032
#
# Disc length: 2218 seconds
#
#
# Revision: 1
# Processed by: cddbd v1.4PL0 Copyright (c) Steve Scherf et al.
# Submitted via: FreeRIP 2.00 
#
DISCID=8c08a80c
DTITLE=Bob Wills - Tiffany Transciptions Volume 1
DYEAR=1946
DGENRE=Country
TTITLE0=Nancy Jane
TTITLE1=Mission to Moscow
TTITLE2=Dinah/Lone Star Rag
TTITLE3=Cotton Patch Blues
TTITLE4=Sweet Jennie Lee/I Hear You Talkin'
TTITLE5=The Girl I Left Behind Me
TTITLE6=Straighten Up And Fly Right
TTITLE7=LIttle Betty Brown
TTITLE8=Nobody's Sweetheart Now
TTITLE9=Blackout Blues
TTITLE10=What's The Matter With The Mill
TTITLE11=Jumpin' At Ehe Woodside
EXTD=YEAR: 1946 ID3G: 2\nFixed track titles to reflect combined
EXTT0=
EXTT1=
EXTT2=
EXTT3=
EXTT4=
EXTT5=
EXTT6=
EXTT7=
EXTT8=
EXTT9=
EXTT10=
EXTT11=
PLAYORDER=
